HIERARCHY
ROOT mixamorigHips
{
	OFFSET 0.000000 0.000000 -95.415794
	CHANNELS 6 Xposition Yposition Zposition Xrotation Yrotation Zrotation
	JOINT mixamorigSpine
	{
		OFFSET 0.000000 -0.358200 -10.058800
		CHANNELS 3 Xrotation Yrotation Zrotation
		JOINT mixamorigSpine1
		{
			OFFSET 0.000000 -0.417847 -11.735359
			CHANNELS 3 Xrotation Yrotation Zrotation
			JOINT mixamorigSpine2
			{
				OFFSET 0.000000 -0.477538 -13.411812
				CHANNELS 3 Xrotation Yrotation Zrotation
				JOINT mixamorigNeck
				{
					OFFSET 0.000000 -0.537228 -15.088242
					CHANNELS 3 Xrotation Yrotation Zrotation
					JOINT mixamorigHead
					{
						OFFSET 0.000000 2.687800 -8.085602
						CHANNELS 3 Xrotation Yrotation Zrotation
						JOINT mixamorigHeadTop_End
						{
							OFFSET 0.000000 7.146700 -21.499207
							CHANNELS 3 Xrotation Yrotation Zrotation
							End Site
							{
								OFFSET 0.000000 0.000000 -22.655930
							}
						}
					}
				}
				JOINT mixamorigLeftShoulder
				{
					OFFSET 5.949100 -0.535855 -13.237015
					CHANNELS 3 Xrotation Yrotation Zrotation
					JOINT mixamorigLeftArm
					{
						OFFSET 11.918104 0.002851 3.676208
						CHANNELS 3 Xrotation Yrotation Zrotation
						JOINT mixamorigLeftForeArm
						{
							OFFSET 23.814898 -0.000001 0.000000
							CHANNELS 3 Xrotation Yrotation Zrotation
							JOINT mixamorigLeftHand
							{
								OFFSET 24.556309 -0.000001 0.000000
								CHANNELS 3 Xrotation Yrotation Zrotation
								JOINT mixamorigLeftHandThumb1
								{
									OFFSET 2.802582 2.556223 1.204224
									CHANNELS 3 Xrotation Yrotation Zrotation
									JOINT mixamorigLeftHandThumb2
									{
										OFFSET 2.466209 1.423865 1.423859
										CHANNELS 3 Xrotation Yrotation Zrotation
										JOINT mixamorigLeftHandThumb3
										{
											OFFSET 2.369835 1.368225 1.368225
											CHANNELS 3 Xrotation Yrotation Zrotation
											JOINT mixamorigLeftHandThumb4
											{
												OFFSET 1.846512 1.066086 1.066086
												CHANNELS 3 Xrotation Yrotation Zrotation
												End Site
												{
													OFFSET 1.556206 1.486212 1.025696
												}
											}
										}
									}
								}
								JOINT mixamorigLeftHandIndex1
								{
									OFFSET 8.620476 2.435161 0.225967
									CHANNELS 3 Xrotation Yrotation Zrotation
									JOINT mixamorigLeftHandIndex2
									{
										OFFSET 3.045731 -0.000000 0.000000
										CHANNELS 3 Xrotation Yrotation Zrotation
										JOINT mixamorigLeftHandIndex3
										{
											OFFSET 2.806702 -0.000000 0.000000
											CHANNELS 3 Xrotation Yrotation Zrotation
											JOINT mixamorigLeftHandIndex4
											{
												OFFSET 2.440117 -0.000000 0.000000
												CHANNELS 3 Xrotation Yrotation Zrotation
												End Site
												{
													OFFSET 2.440094 -0.008200 0.000061
												}
											}
										}
									}
								}
								JOINT mixamorigLeftHandMiddle1
								{
									OFFSET 8.484863 -0.000000 0.000000
									CHANNELS 3 Xrotation Yrotation Zrotation
									JOINT mixamorigLeftHandMiddle2
									{
										OFFSET 3.193611 -0.000000 0.000000
										CHANNELS 3 Xrotation Yrotation Zrotation
										JOINT mixamorigLeftHandMiddle3
										{
											OFFSET 3.085205 -0.000000 0.000000
											CHANNELS 3 Xrotation Yrotation Zrotation
											JOINT mixamorigLeftHandMiddle4
											{
												OFFSET 2.692902 -0.000000 0.000000
												CHANNELS 3 Xrotation Yrotation Zrotation
												End Site
												{
													OFFSET 2.692902 -0.003300 0.000031
												}
											}
										}
									}
								}
								JOINT mixamorigLeftHandRing1
								{
									OFFSET 8.270775 -2.023483 -0.052689
									CHANNELS 3 Xrotation Yrotation Zrotation
									JOINT mixamorigLeftHandRing2
									{
										OFFSET 2.740799 -0.000000 0.000000
										CHANNELS 3 Xrotation Yrotation Zrotation
										JOINT mixamorigLeftHandRing3
										{
											OFFSET 2.757607 -0.000000 0.000000
											CHANNELS 3 Xrotation Yrotation Zrotation
											JOINT mixamorigLeftHandRing4
											{
												OFFSET 2.285004 -0.000000 0.000000
												CHANNELS 3 Xrotation Yrotation Zrotation
												End Site
												{
													OFFSET 2.285004 0.003000 -0.000031
												}
											}
										}
									}
								}
								JOINT mixamorigLeftHandPinky1
								{
									OFFSET 7.700752 -3.945376 0.253616
									CHANNELS 3 Xrotation Yrotation Zrotation
									JOINT mixamorigLeftHandPinky2
									{
										OFFSET 2.527405 0.000000 0.000000
										CHANNELS 3 Xrotation Yrotation Zrotation
										JOINT mixamorigLeftHandPinky3
										{
											OFFSET 2.003403 0.000000 0.000000
											CHANNELS 3 Xrotation Yrotation Zrotation
											JOINT mixamorigLeftHandPinky4
											{
												OFFSET 1.854500 0.000000 0.000000
												CHANNELS 3 Xrotation Yrotation Zrotation
												End Site
												{
													OFFSET 1.854507 -0.001300 0.000015
												}
											}
										}
									}
								}
							}
						}
					}
				}
				JOINT mixamorigRightShoulder
				{
					OFFSET -5.949100 -0.538657 -13.237015
					CHANNELS 3 Xrotation Yrotation Zrotation
					JOINT mixamorigRightArm
					{
						OFFSET -11.918104 -0.002847 3.676208
						CHANNELS 3 Xrotation Yrotation Zrotation
						JOINT mixamorigRightForeArm
						{
							OFFSET -23.819902 0.000001 0.000000
							CHANNELS 3 Xrotation Yrotation Zrotation
							JOINT mixamorigRightHand
							{
								OFFSET -24.559902 0.000001 0.000000
								CHANNELS 3 Xrotation Yrotation Zrotation
								JOINT mixamorigRightHandThumb1
								{
									OFFSET -2.702209 2.527615 1.308395
									CHANNELS 3 Xrotation Yrotation Zrotation
									JOINT mixamorigRightHandThumb2
									{
										OFFSET -2.432022 1.404127 1.404129
										CHANNELS 3 Xrotation Yrotation Zrotation
										JOINT mixamorigRightHandThumb3
										{
											OFFSET -2.375206 1.371325 1.371323
											CHANNELS 3 Xrotation Yrotation Zrotation
											JOINT mixamorigRightHandThumb4
											{
												OFFSET -1.987808 1.147661 1.147659
												CHANNELS 3 Xrotation Yrotation Zrotation
												End Site
												{
													OFFSET -1.835846 1.380323 1.144562
												}
											}
										}
									}
								}
								JOINT mixamorigRightHandIndex1
								{
									OFFSET -8.671478 2.442636 0.301926
									CHANNELS 3 Xrotation Yrotation Zrotation
									JOINT mixamorigRightHandIndex2
									{
										OFFSET -3.068298 0.000000 0.000000
										CHANNELS 3 Xrotation Yrotation Zrotation
										JOINT mixamorigRightHandIndex3
										{
											OFFSET -2.779701 0.000000 0.000000
											CHANNELS 3 Xrotation Yrotation Zrotation
											JOINT mixamorigRightHandIndex4
											{
												OFFSET -2.490097 0.000000 0.000000
												CHANNELS 3 Xrotation Yrotation Zrotation
												End Site
												{
													OFFSET -2.490097 -0.000700 0.000000
												}
											}
										}
									}
								}
								JOINT mixamorigRightHandMiddle1
								{
									OFFSET -8.656311 0.000000 0.000000
									CHANNELS 3 Xrotation Yrotation Zrotation
									JOINT mixamorigRightHandMiddle2
									{
										OFFSET -3.230400 0.000000 0.000000
										CHANNELS 3 Xrotation Yrotation Zrotation
										JOINT mixamorigRightHandMiddle3
										{
											OFFSET -3.025497 0.000000 0.000000
											CHANNELS 3 Xrotation Yrotation Zrotation
											JOINT mixamorigRightHandMiddle4
											{
												OFFSET -2.688805 0.000000 0.000000
												CHANNELS 3 Xrotation Yrotation Zrotation
												End Site
												{
													OFFSET -2.688797 -0.000700 0.000000
												}
											}
										}
									}
								}
								JOINT mixamorigRightHandRing1
								{
									OFFSET -8.628174 -2.089274 -0.073822
									CHANNELS 3 Xrotation Yrotation Zrotation
									JOINT mixamorigRightHandRing2
									{
										OFFSET -2.674103 0.000000 0.000000
										CHANNELS 3 Xrotation Yrotation Zrotation
										JOINT mixamorigRightHandRing3
										{
											OFFSET -2.630905 0.000000 0.000000
											CHANNELS 3 Xrotation Yrotation Zrotation
											JOINT mixamorigRightHandRing4
											{
												OFFSET -2.160599 0.000000 0.000000
												CHANNELS 3 Xrotation Yrotation Zrotation
												End Site
												{
													OFFSET -2.160599 -0.000900 0.000000
												}
											}
										}
									}
								}
								JOINT mixamorigRightHandPinky1
								{
									OFFSET -7.514580 -3.927982 0.339432
									CHANNELS 3 Xrotation Yrotation Zrotation
									JOINT mixamorigRightHandPinky2
									{
										OFFSET -2.510002 0.000000 0.000000
										CHANNELS 3 Xrotation Yrotation Zrotation
										JOINT mixamorigRightHandPinky3
										{
											OFFSET -2.099197 0.000000 0.000000
											CHANNELS 3 Xrotation Yrotation Zrotation
											JOINT mixamorigRightHandPinky4
											{
												OFFSET -1.845604 0.000000 0.000000
												CHANNELS 3 Xrotation Yrotation Zrotation
												End Site
												{
													OFFSET -1.845596 0.001600 0.000015
												}
											}
										}
									}
								}
							}
						}
					}
				}
			}
		}
	}
	JOINT mixamorigLeftUpLeg
	{
		OFFSET 9.392100 -0.093200 5.572197
		CHANNELS 3 Xrotation Yrotation Zrotation
		JOINT mixamorigLeftLeg
		{
			OFFSET 0.292645 -2.734330 42.228855
			CHANNELS 3 Xrotation Yrotation Zrotation
			JOINT mixamorigLeftFoot
			{
				OFFSET -0.292647 -1.515097 39.069244
				CHANNELS 3 Xrotation Yrotation Zrotation
				JOINT mixamorigLeftToeBase
				{
					OFFSET 1.771321 12.504712 7.534380
					CHANNELS 3 Xrotation Yrotation Zrotation
					JOINT mixamorigLeftToe_End
					{
						OFFSET 0.606595 5.917521 -0.250482
						CHANNELS 3 Xrotation Yrotation Zrotation
						End Site
						{
							OFFSET 0.606595 5.917521 -0.250482
						}
					}
				}
			}
		}
	}
	JOINT mixamorigRightUpLeg
	{
		OFFSET -9.392100 -0.015200 5.572197
		CHANNELS 3 Xrotation Yrotation Zrotation
		JOINT mixamorigRightLeg
		{
			OFFSET -0.292665 -2.850109 42.228924
			CHANNELS 3 Xrotation Yrotation Zrotation
			JOINT mixamorigRightFoot
			{
				OFFSET 0.292671 -1.341140 39.069195
				CHANNELS 3 Xrotation Yrotation Zrotation
				JOINT mixamorigRightToeBase
				{
					OFFSET -1.771318 12.379671 7.534140
					CHANNELS 3 Xrotation Yrotation Zrotation
					JOINT mixamorigRightToe_End
					{
						OFFSET -0.606596 6.000615 -0.250612
						CHANNELS 3 Xrotation Yrotation Zrotation
						End Site
						{
							OFFSET -0.606596 6.000614 -0.250612
						}
					}
				}
			}
		}
	}
}
MOTION
Frames: 4
Frame Time: 0.033333
4.275013 -0.150434 -93.383858 -2.808651 -8.013435 18.108039 -0.530075 2.503605 1.399322 0.680761 5.613267 -0.211920 0.718103 5.515905 -0.725901 7.258705 -2.348073 2.093204 25.605237 1.893208 10.468934 -0.000003 -0.000000 0.000000 2.792758 -11.010285 11.971769 79.851694 -59.979935 35.828823 -0.000007 0.000020 84.278162 -15.519667 23.961815 40.439921 -35.122069 23.008585 5.121635 0.355254 -0.035494 -31.933634 3.471698 0.466676 -14.547552 0.000000 0.000001 -0.000005 3.418040 -20.507913 6.487301 -0.481990 -16.860722 -2.582166 -0.111885 -10.168794 -0.829886 -0.000001 -0.000000 0.000001 -1.563545 -15.971221 -5.625652 -1.022715 -25.390253 -3.644914 -0.155119 -12.345476 -1.532609 -0.000000 0.000000 -0.000001 -1.523640 -15.306071 -9.376968 -0.219110 -17.958365 -2.180282 0.062619 -8.645366 -0.846032 -0.000000 -0.000002 -0.000001 -0.816006 -6.953705 -17.770101 -0.236614 -13.425449 -1.204449 -0.064475 -4.507877 -1.314179 0.000002 0.000002 0.000002 1.730389 15.207145 -4.511948 60.604514 44.563327 -4.012226 -0.000006 -0.000009 -90.249974 -24.237198 -26.464662 -44.488758 -10.525553 -22.394170 -0.662231 -2.373761 2.854946 27.016643 2.884048 0.436691 12.496948 -0.000002 -0.000002 0.000001 9.933375 35.706026 -3.711674 -0.200026 9.664659 1.788738 -0.246419 13.843860 0.222838 0.000001 -0.000001 -0.000000 -2.067119 19.406065 7.590358 -1.109825 26.559233 3.800222 -0.274697 16.210392 1.790776 0.000000 -0.000001 0.000000 -1.180903 11.813868 11.117984 -0.695704 29.015432 3.476378 -0.146688 17.817925 -0.036788 0.000001 0.000000 -0.000001 -0.104749 -8.035080 21.765028 -0.604747 22.510722 2.233288 -0.250111 6.374555 -1.513234 0.000000 -0.000000 0.000001 -11.852977 18.002724 -15.015302 31.316732 1.251512 -10.065433 -10.690198 -8.980556 -19.019881 -1.873016 -0.000001 -0.000005 0.000000 -0.000000 -0.000004 2.424510 11.068115 3.053976 12.106459 4.534879 -9.419532 -6.829521 -12.578567 12.783879 -1.660884 -0.000008 0.000003 0.000000 0.000000 -0.000001 
4.383525 -0.205184 -93.448677 -2.818006 -7.798357 18.148098 -0.550269 2.318648 1.200781 0.696114 5.607986 -0.264933 0.734434 5.510000 -0.778557 7.229282 -2.416107 2.105965 25.576687 1.817585 10.532984 -0.000001 0.000000 -0.000000 2.792754 -11.010279 11.971769 79.851666 -59.979941 35.828802 -0.000010 0.000001 84.287048 -15.611857 24.015469 40.435249 -35.122072 23.008587 5.121631 0.355237 -0.035490 -31.933658 3.471723 0.466687 -14.547550 -0.000001 0.000001 0.000000 3.438919 -20.685003 6.474752 -0.481987 -16.860725 -2.582168 -0.111894 -10.168792 -0.829877 0.000000 -0.000001 0.000000 -1.599975 -16.240826 -5.664620 -1.022728 -25.390385 -3.644923 -0.155114 -12.345468 -1.532607 0.000001 0.000000 -0.000000 -1.559595 -15.575799 -9.414455 -0.219097 -17.958657 -2.180299 0.062594 -8.645385 -0.846044 0.000000 0.000001 -0.000001 -0.826633 -6.989150 -17.774283 -0.236623 -13.425438 -1.204450 -0.064495 -4.507889 -1.314198 -0.000001 0.000000 0.000001 1.730378 15.207008 -4.511949 60.604514 44.563313 -4.012220 0.000007 -0.000011 -90.249967 -24.237217 -26.464671 -44.488762 -10.525536 -22.394172 -0.662190 -2.373739 2.854949 27.016622 2.884042 0.436693 12.496951 -0.000002 0.000006 -0.000005 9.933385 35.706026 -3.711672 -0.200012 9.664654 1.788712 -0.246438 13.843852 0.222818 -0.000000 0.000002 0.000000 -2.067113 19.406067 7.590370 -1.109841 26.559235 3.800224 -0.274699 16.210377 1.790777 0.000000 -0.000001 -0.000001 -1.180906 11.813874 11.118000 -0.695693 29.015432 3.476362 -0.146678 17.817925 -0.036797 0.000000 -0.000001 -0.000002 -0.104766 -8.035070 21.765035 -0.604729 22.510719 2.233294 -0.250131 6.374562 -1.513247 -0.000000 0.000001 0.000002 -11.727451 17.625508 -14.870013 30.860345 1.132743 -10.061252 -10.482903 -8.787766 -19.302535 -1.849693 -0.000002 -0.000001 0.000000 0.000000 0.000003 2.307130 10.853895 3.121427 12.096409 4.364625 -9.421630 -6.788548 -12.405782 12.723750 -1.650275 -0.000001 -0.000011 0.000000 0.000000 -0.000002 
4.509295 -0.244486 -93.508392 -2.813329 -7.616041 18.130925 -0.576004 2.213439 1.102103 0.708358 5.619443 -0.295129 0.747307 5.521076 -0.808627 7.144007 -2.513616 2.085740 25.405877 1.483290 10.472245 -0.000003 -0.000001 -0.000002 2.792769 -11.010318 11.971772 79.851653 -59.979941 35.828799 -0.000006 -0.000006 84.294944 -15.699209 24.069588 40.434703 -35.122059 23.008587 5.121615 0.355249 -0.035499 -31.933627 3.471722 0.466677 -14.547541 -0.000002 -0.000000 -0.000000 3.459805 -20.861927 6.462381 -0.481984 -16.860732 -2.582158 -0.111900 -10.168789 -0.829893 0.000000 0.000000 0.000000 -1.636594 -16.510125 -5.703714 -1.022710 -25.390501 -3.644936 -0.155132 -12.345482 -1.532600 0.000001 -0.000000 0.000000 -1.595711 -15.845238 -9.452036 -0.219145 -17.958963 -2.180345 0.062617 -8.645375 -0.846057 -0.000000 0.000001 -0.000002 -0.838319 -7.027836 -17.778941 -0.236627 -13.425456 -1.204434 -0.064474 -4.507898 -1.314184 -0.000000 -0.000001 -0.000001 1.730391 15.207138 -4.511952 60.604508 44.563276 -4.012235 0.000002 -0.000009 -90.249960 -24.237213 -26.464678 -44.488751 -10.525546 -22.394187 -0.662198 -2.373749 2.854960 27.016643 2.884024 0.436706 12.496950 -0.000002 0.000003 -0.000002 9.933384 35.706023 -3.711669 -0.200019 9.664654 1.788720 -0.246437 13.843857 0.222833 0.000001 -0.000001 0.000002 -2.067140 19.406087 7.590365 -1.109817 26.559218 3.800235 -0.274698 16.210375 1.790772 -0.000001 -0.000002 -0.000000 -1.180919 11.813882 11.118001 -0.695661 29.015419 3.476362 -0.146678 17.817914 -0.036789 -0.000000 0.000002 0.000001 -0.104762 -8.035070 21.765031 -0.604725 22.510721 2.233297 -0.250137 6.374568 -1.513249 0.000000 0.000000 0.000003 -11.638334 17.335017 -14.803462 30.469126 0.974619 -10.056334 -10.301752 -8.565065 -19.417038 -1.798526 -0.000001 0.000006 -0.000000 0.000001 0.000001 2.209132 10.660476 3.183763 12.041089 4.225071 -9.438765 -6.722382 -12.239637 12.732451 -1.699437 -0.000004 -0.000011 -0.000000 0.000001 -0.000002 
4.645638 -0.291945 -93.531303 -2.792628 -7.496711 18.020062 -0.582560 2.200371 1.107080 0.721298 5.638982 -0.298934 0.760406 5.540518 -0.812355 7.027309 -2.604282 2.042192 25.113263 1.026195 10.315034 0.000001 -0.000001 -0.000002 2.792765 -11.010320 11.971769 79.851694 -59.979921 35.828823 -0.000019 0.000009 84.301699 -15.781748 24.124209 40.438241 -35.122069 23.008588 5.121631 0.355268 -0.035469 -31.933641 3.471704 0.466673 -14.547546 -0.000000 0.000001 -0.000005 3.480693 -21.038528 6.450227 -0.481959 -16.860733 -2.582156 -0.111896 -10.168787 -0.829879 -0.000000 -0.000000 0.000000 -1.673397 -16.778882 -5.742930 -1.022758 -25.390639 -3.644974 -0.155102 -12.345485 -1.532610 0.000001 -0.000001 0.000002 -1.631995 -16.114141 -9.489674 -0.219121 -17.959240 -2.180370 0.062614 -8.645395 -0.846018 -0.000000 0.000000 -0.000002 -0.851068 -7.069875 -17.784056 -0.236622 -13.425461 -1.204446 -0.064478 -4.507898 -1.314196 0.000001 -0.000000 -0.000001 1.730389 15.207165 -4.511948 60.604501 44.563269 -4.012204 -0.000004 -0.000010 -90.249974 -24.237235 -26.464657 -44.488762 -10.525541 -22.394177 -0.662202 -2.373744 2.854947 27.016643 2.884043 0.436694 12.496949 0.000000 0.000003 -0.000002 9.933387 35.706023 -3.711683 -0.200009 9.664660 1.788706 -0.246460 13.843859 0.222838 0.000001 -0.000004 -0.000000 -2.067108 19.406050 7.590355 -1.109840 26.559242 3.800237 -0.274686 16.210382 1.790753 -0.000001 0.000001 0.000001 -1.180925 11.813875 11.118007 -0.695677 29.015426 3.476377 -0.146670 17.817913 -0.036780 0.000000 0.000001 0.000002 -0.104765 -8.035079 21.765033 -0.604713 22.510731 2.233283 -0.250132 6.374563 -1.513243 -0.000000 0.000000 -0.000000 -11.715566 17.165268 -14.755329 30.342521 0.839529 -10.051419 -10.220026 -8.364310 -19.365130 -1.760682 0.000000 0.000007 -0.000001 0.000000 0.000003 1.929696 10.525299 3.249466 12.334169 4.123229 -9.470095 -6.818427 -12.130090 12.857346 -1.762144 -0.000004 -0.000006 0.000001 -0.000000 0.000002 
